# xmcd CD database file
#
# Track frame offsets:
#	150
#	9668
#	19941
#	27744
#	41057
#	51108
#	66008
#	76755
#	86461
#	97930
#	109501
#	123774
#	134007
#	144384
#	157332
#
# Disc length: 2252 seconds
#
# Revision: 0
# Processed by: cddbd v1.5.2PL0 Copyright (c) Steve Scherf et al.
# Submitted via: CDex 1.51
#
DISCID=c308ca0f
DTITLE=The Johnny Trouble Trio - The Rhythm Of The Railroad Track
DYEAR=2008
DGENRE=Country
TTITLE0=01 The Rhythm Of The Railroad Track
TTITLE1=02 Prison Bound
TTITLE2=03 I'm Gone
TTITLE3=04 Wild Gipsy
TTITLE4=05 Lonesome To The Bone
TTITLE5=06 Lonesome Guitar
TTITLE6=07 Slow Down Brother
TTITLE7=08 Tonights The Night For Love
TTITLE8=09 Its The Music She Says
TTITLE9=Gonna Take My Guitar
TTITLE10=11 Dark Hollow
TTITLE11=12 Gentlemen Prefer Blondes
TTITLE12=13 Pistol Packin Mama
TTITLE13=14 I Know What It Means
TTITLE14=15 Blues Stay Away
EXTD=YEAR: 2008
EXTT0=
EXTT1=
EXTT2=
EXTT3=
EXTT4=
EXTT5=
EXTT6=
EXTT7=
EXTT8=
EXTT9=
EXTT10=
EXTT11=
EXTT12=
EXTT13=
EXTT14=
PLAYORDER=
